<?xml version="1.0" encoding="utf-8"?>
<!-- Generator: Adobe Illustrator 16.0.0, SVG Export Plug-In . SVG Version: 6.00 Build 0)  -->
<!DOCTYPE svg PUBLIC "-//W3C//DTD SVG 1.1//EN" "http://www.w3.org/Graphics/SVG/1.1/DTD/svg11.dtd">
<svg version="1.1" id="front" xmlns="http://www.w3.org/2000/svg" xmlns:xlink="http://www.w3.org/1999/xlink" x="0px" y="0px"
	 width="1000px" height="232.488px" viewBox="0 0 1000 232.488" enable-background="new 0 0 1000 232.488" xml:space="preserve">
<rect id="back" y="0" fill="#71A6FF" width="1001" height="232.488"/>
<g id="fork">
	<path fill="#FFEEDB" d="M185.784,47.389c5.005,3.896,4.866,3.204,2.128,8.249c-2.261,4.168-5.158,8.8-7.01,13.262
		c-1.551,3.735-0.555,11.733,4.783,12.125c4.488,0.329,14.671-17.789,17.342-20.385c1.142,0.646,2.504,1.669,3.423,2.619
		c-1.73,2.405-13.402,16.041-14.608,18.839c-2.111,4.892-0.471,9.809,6.429,8.69c4.711-0.764,8.593-5.62,11.294-9.086
		c1.534-1.969,4.335-4.449,5.194-6.82c0.956-2.642,1.366-0.385,1.614-3.946c1.683,1.078,1.685,1.94,3.241,3.151
		c3.038,2.362,1.267,0.3-0.191,2.739c-2.943,4.921-5.102,9.54-8.703,14.164c-7.363,9.454-15.039,25.486-29.63,21.725
		c-6.499-1.675-13.971-8.513-17.193-14.193c-5.478-9.657-3.025-13.979,2.173-22.152c4.168-6.551,8.188-12.942,12.443-19.428
		c2.204-3.358,5.326-6.001,7.007-9.214"/>
	<path fill="#FFEEDB" d="M115.344,183.359c-1.532,1.967-4.367,2.318-6.332,0.787l0,0c-1.967-1.533-2.32-4.365-0.788-6.334
		l67.39-86.515c1.531-1.965,4.367-2.318,6.334-0.786l0,0c1.965,1.531,2.318,4.367,0.786,6.333L115.344,183.359z"/>
</g>
<g id="spoon">
	
		<ellipse transform="matrix(0.7464 -0.6655 0.6655 0.7464 -37.5141 77.5006)" fill="#FFEEDB" cx="82.927" cy="87.97" rx="20.402" ry="30.372"/>
	<path fill="#FFEEDB" d="M171.911,180.853c1.692,1.897,1.526,4.807-0.372,6.498l0,0c-1.896,1.693-4.805,1.527-6.498-0.374
		l-74.422-83.465c-1.691-1.896-1.524-4.805,0.373-6.497l0,0c1.897-1.691,4.807-1.523,6.497,0.373L171.911,180.853z"/>
</g>
<g id="wheaticon">
	<g id="takje">
		<g>
			<path fill="#FFC015" d="M846.492,128.213c4.798-3.974,10.588-6.978,15.878-10.246c5.85-3.615,11.603-7.411,17.549-10.866
				c10.786-6.269,22.537-10.52,34.6-13.567c5.624-1.421,3.237-10.101-2.393-8.679c-12.852,3.247-25.188,7.97-36.75,14.474
				c-5.986,3.368-11.706,7.255-17.549,10.866c-5.983,3.698-12.27,7.157-17.698,11.654
				C835.654,125.554,842.059,131.885,846.492,128.213L846.492,128.213z"/>
		</g>
	</g>
	<g>
		<g>
			<path fill="#FFC03F" d="M913.637,89.277c-2.113-8.953,9.941-13.054,15.705-13.256c-2.217,4.407-3.263,10.324-8.152,11.896
				c-2.156,0.614-5.286,2.401-7.621,1.481"/>
			<g>
				<path fill="#E9A400" d="M916.529,88.48c-1.24-6.342,8-9.207,12.813-9.458c-0.863-1.505-1.727-3.009-2.591-4.514
					c-1.278,2.654-2.179,5.475-3.646,8.037c-1.344,2.346-6.072,4.664-8.739,3.962c-3.746-0.984-5.335,4.803-1.596,5.786
					c3.861,1.015,9.521-0.798,12.589-3.3c3.571-2.913,4.653-7.474,6.573-11.457c0.922-1.914-0.15-4.642-2.591-4.514
					c-9.188,0.481-20.712,6.247-18.598,17.053C911.486,93.87,917.269,92.259,916.529,88.48L916.529,88.48z"/>
			</g>
		</g>
		<g>
			<path fill="#FDF57A" d="M916,86.025c1.553-2.596,4.946-7.239,7.951-4.344c-0.609,1.489-2.402,3.372-3.489,4.424
				c-1.56,1.496-2.513,0.623-4.128,0.304"/>
			<g>
				<path fill="#FBB03B" d="M917.295,86.782c0.889-1.464,3.492-5.874,5.596-4.04c-0.078-0.606-0.156-1.212-0.234-1.817
					c-0.577,1.255-1.473,2.277-2.413,3.274c-0.425,0.451-0.992,1.228-1.651,1.253c-0.572,0.022-1.301-0.359-1.859-0.489
					c-1.882-0.437-2.682,2.456-0.797,2.893c1.858,0.432,3.531,1.068,5.176-0.338c1.611-1.377,3.244-3.139,4.135-5.079
					c0.27-0.587,0.305-1.348-0.234-1.817c-4.167-3.632-8.199,1.175-10.307,4.647C913.698,86.927,916.293,88.433,917.295,86.782
					L917.295,86.782z"/>
			</g>
		</g>
	</g>
	<g>
		<g>
			<path fill="#FFC03F" d="M890.08,95.796c-6.495-5.432,0.668-17.395,5.044-21.746c0.662,5.044,3.053,10.411,0.099,15.191
				c-1.348,2.047-2.815,5.716-5.131,6.699"/>
			<g>
				<path fill="#E9A400" d="M892.201,93.675c-4.919-4.72,1.459-13.776,5.044-17.504c-1.671-0.441-3.343-0.882-5.014-1.324
					c0.568,3.604,1.88,7.264,1.222,10.937c-0.394,2.204-2.96,6.444-4.875,7.566c-3.336,1.954-0.318,7.141,3.027,5.181
					c3.23-1.893,6.022-6.295,7.188-9.81c1.737-5.239,0.05-10.228-0.777-15.469c-0.358-2.273-3.572-2.823-5.014-1.324
					c-6.023,6.262-12.796,18.55-5.044,25.988C890.749,100.595,894.998,96.358,892.201,93.675L892.201,93.675z"/>
			</g>
		</g>
		<g>
			<path fill="#FDF57A" d="M890.157,91.545c-0.196-3.15-0.069-9.234,3.837-9.167c0.332,1.602-0.045,4.373-0.32,5.983
				c-0.402,2.298-1.618,2.313-3.049,3.238"/>
			<g>
				<path fill="#FBB03B" d="M891.657,91.545c-0.108-1.904-0.55-7.564,2.337-7.667c-0.482-0.367-0.964-0.734-1.446-1.101
					c0.251,1.549-0.013,3.226-0.25,4.76c-0.269,1.738-1.061,1.935-2.43,2.767c-1.65,1.003-0.145,3.598,1.514,2.591
					c1.67-1.015,2.96-1.633,3.621-3.606c0.73-2.181,0.802-5.066,0.438-7.31c-0.103-0.632-0.836-1.123-1.446-1.101
					c-5.261,0.187-5.562,6.718-5.337,10.667C888.767,93.468,891.767,93.478,891.657,91.545L891.657,91.545z"/>
			</g>
		</g>
	</g>
	<g>
		<g>
			<path fill="#FFC03F" d="M865.279,109.02c-7.553-3.088-3.591-16.906-0.451-22.512c1.862,4.623,5.461,8.991,3.791,14.542
				c-0.795,2.405-1.311,6.404-3.293,8.105"/>
			<g>
				<path fill="#E9A400" d="M866.793,106.43c-6.055-2.952-1.679-14.11,0.626-18.407c-1.728,0-3.454,0-5.182,0
					c1.438,3.306,3.553,6.427,3.813,10.109c0.163,2.318-1.29,7.211-2.845,8.903c-2.612,2.843,1.619,7.097,4.242,4.242
					c2.646-2.879,4.23-7.839,4.502-11.712c0.382-5.457-2.437-9.751-4.53-14.57c-0.906-2.083-4.198-1.833-5.182,0
					c-3.902,7.278-8.187,21.881,1.528,26.616C867.229,113.299,870.271,108.125,866.793,106.43L866.793,106.43z"/>
			</g>
		</g>
		<g>
			<path fill="#FDF57A" d="M864.32,104.918c-0.956-2.96-2.314-8.838,1.449-10.05c0.709,1.429,1.021,4.21,1.149,5.845
				c0.173,2.337-0.99,2.748-2.137,4.104"/>
			<g>
				<path fill="#FBB03B" d="M865.767,104.519c-0.613-1.94-2.337-7.146,0.401-8.205c-0.564-0.229-1.129-0.459-1.693-0.689
					c0.62,1.423,0.758,3.089,0.904,4.616c0.17,1.762-0.574,2.312-1.657,3.516c-1.29,1.434,0.825,3.563,2.121,2.121
					c1.496-1.664,2.625-2.782,2.576-5.165c-0.045-2.205-0.474-4.583-1.354-6.602c-0.246-0.565-1.127-0.909-1.693-0.689
					c-4.887,1.887-3.753,7.922-2.497,11.895C863.455,107.154,866.352,106.369,865.767,104.519L865.767,104.519z"/>
			</g>
		</g>
	</g>
	<g>
		<g>
			<path fill="#FFC03F" d="M900.603,91.939c-7.267-3.904-2.19-17.226,1.394-22.46c1.477,4.807,4.701,9.551,2.584,14.894
				c-0.988,2.307-1.829,6.23-3.942,7.706"/>
			<g>
				<path fill="#E9A400" d="M902.117,89.349c-5.626-3.523-0.136-14.386,2.47-18.355c-1.828-0.239-3.656-0.478-5.483-0.717
					c1.092,3.247,2.777,6.403,3.16,9.845c0.309,2.772-1.69,7.989-3.747,9.836c-2.886,2.589,1.372,6.818,4.242,4.242
					c2.896-2.599,4.039-6.867,5.164-10.472c1.584-5.073-1.472-10.403-3.034-15.046c-0.843-2.506-4.025-2.937-5.483-0.717
					c-4.732,7.21-9.499,20.814-0.317,26.564C902.378,96.59,905.387,91.397,902.117,89.349L902.117,89.349z"/>
			</g>
		</g>
		<g>
			<path fill="#FDF57A" d="M899.983,87.748c-0.71-3.049-1.581-9.051,2.267-9.844c0.588,1.5,0.672,4.305,0.666,5.945
				c-0.021,2.346-1.213,2.626-2.465,3.851"/>
			<g>
				<path fill="#FBB03B" d="M901.43,87.349c-0.468-2.065-1.69-7.228,1.219-7.999c-0.615-0.349-1.229-0.698-1.845-1.047
					c0.55,1.631,0.588,3.365,0.611,5.072c0.024,1.751-0.855,2.187-2.024,3.265c-1.425,1.314,0.702,3.43,2.121,2.121
					c1.382-1.274,2.753-2.267,2.87-4.32c0.13-2.263,0.044-4.772-0.686-6.935c-0.263-0.78-1.021-1.266-1.845-1.047
					c-5.037,1.334-4.193,7.808-3.314,11.689C898.964,90.033,901.856,89.233,901.43,87.349L901.43,87.349z"/>
			</g>
		</g>
	</g>
	<g>
		<g>
			<path fill="#FFC03F" d="M908.306,91.469c-0.388,9.272,12.147,10.246,17.812,8.996c-2.988-3.747-5.117-9.261-10.184-9.566
				c-2.221-0.057-5.609-1.015-7.719,0.47"/>
			<g>
				<path fill="#E9A400" d="M905.306,91.469c-0.003,11.089,12.821,13.658,21.609,11.889c1.754-0.354,2.936-2.911,1.793-4.407
					c-2.703-3.539-4.686-7.693-8.695-9.967c-3.523-1.999-9.802-2.067-13.312-0.206c-3.42,1.813-0.388,6.992,3.027,5.181
					c2.217-1.175,6.921-0.361,8.744,1.234c2.094,1.832,3.38,4.594,5.054,6.786c0.598-1.469,1.195-2.938,1.793-4.407
					c-4.799,0.966-14.016,0.461-14.014-6.103C911.307,87.6,905.307,87.6,905.306,91.469L905.306,91.469z"/>
			</g>
		</g>
		<g>
			<path fill="#FDF57A" d="M911.221,94.051c2.002,2.144,6.184,5.825,8.576,2.243c-0.873-1.301-2.977-2.688-4.235-3.441
				c-1.801-1.069-2.569,0.023-4.085,0.741"/>
			<g>
				<path fill="#FBB03B" d="M910.16,95.111c2.91,3.068,7.646,6.338,10.932,1.939c0.286-0.383,0.285-1.13,0-1.514
					c-1.258-1.693-2.986-2.894-4.773-3.98c-2.093-1.272-3.695-0.241-5.599,0.741c-1.72,0.888-0.202,3.477,1.514,2.591
					c0.535-0.276,1.047-0.589,1.574-0.879c0.571-0.314,1.222,0.273,1.687,0.564c1.075,0.673,2.241,1.446,3.008,2.477
					c0-0.504,0-1.009,0-1.514c-1.701,2.277-5.001-1.262-6.221-2.547C910.947,91.584,908.83,93.709,910.16,95.111L910.16,95.111z"/>
			</g>
		</g>
	</g>
	<g>
		<g>
			<path fill="#FFC03F" d="M906.451,90.748c-5.395-6.86,3.734-16.865,8.787-20.083c-0.244,5.095,1.145,10.916-2.593,14.892
				c-1.681,1.684-3.769,4.925-6.21,5.337"/>
			<g>
				<path fill="#E9A400" d="M909.042,89.234c-3.946-5.681,3.19-12.959,7.71-15.979c-1.504-0.863-3.009-1.727-4.514-2.59
					c-0.085,3.318,0.369,6.699-0.295,9.975c-0.477,2.354-3.924,6.623-6.306,7.36c-3.684,1.142-2.11,6.935,1.596,5.786
					c3.973-1.231,7.288-5.209,9.388-8.672c2.544-4.194,1.499-9.826,1.617-14.449c0.056-2.189-2.623-3.854-4.514-2.59
					c-7.209,4.815-15.942,15.435-9.864,24.188C906.051,95.416,911.255,92.421,909.042,89.234L909.042,89.234z"/>
			</g>
		</g>
		<g>
			<path fill="#FDF57A" d="M907.279,86.606c0.366-3.13,1.567-9.056,5.379-8.059c0.042,1.646-0.818,4.269-1.373,5.779
				c-0.801,2.153-1.994,1.877-3.557,2.444"/>
			<g>
				<path fill="#FBB03B" d="M908.779,86.606c0.205-1.681,0.851-7.169,3.48-6.612c-0.367-0.482-0.734-0.964-1.102-1.446
					c-0.023,1.581-0.545,3.126-1.046,4.612c-0.568,1.685-1.249,1.657-2.782,2.166c-1.827,0.606-1.044,3.503,0.797,2.893
					c1.802-0.598,3.279-0.872,4.262-2.678c1.082-1.989,1.736-4.741,1.77-6.992c0.01-0.635-0.461-1.311-1.102-1.446
					c-5.396-1.143-6.794,5.549-7.277,9.505C905.545,88.524,908.548,88.501,908.779,86.606L908.779,86.606z"/>
			</g>
		</g>
	</g>
	<g>
		<g>
			<path fill="#FFC03F" d="M872.578,104.899c-7.195-4.075-1.888-17.273,1.788-22.422c1.392,4.84,4.532,9.659,2.321,14.951
				c-1.028,2.283-1.938,6.187-4.077,7.611"/>
			<g>
				<path fill="#E9A400" d="M874.092,102.309c-5.518-3.648,0.198-14.416,2.865-18.317c-1.828-0.239-3.656-0.478-5.483-0.717
					c1.037,3.278,2.649,6.459,2.973,9.919c0.26,2.777-1.886,7.943-3.957,9.725c-2.939,2.526,1.325,6.75,4.242,4.242
					c2.937-2.524,4.142-6.805,5.324-10.367c1.67-5.026-1.325-10.464-2.797-15.114c-0.814-2.574-4.016-2.863-5.483-0.717
					c-4.922,7.2-9.756,20.547-0.711,26.526C874.302,109.63,877.304,104.432,874.092,102.309L874.092,102.309z"/>
			</g>
		</g>
		<g>
			<path fill="#FDF57A" d="M872.033,100.695c-0.656-3.066-1.422-9.088,2.439-9.789c0.562,1.514,0.596,4.319,0.56,5.959
				c-0.062,2.345-1.257,2.597-2.531,3.791"/>
			<g>
				<path fill="#FBB03B" d="M873.479,100.296c-0.435-2.091-1.551-7.237,1.392-7.944c-0.615-0.349-1.229-0.698-1.845-1.047
					c0.52,1.64,0.521,3.38,0.514,5.086c-0.008,1.738-0.919,2.162-2.1,3.205c-1.453,1.283,0.678,3.397,2.121,2.121
					c1.416-1.251,2.772-2.204,2.927-4.262c0.169-2.267,0.122-4.766-0.569-6.948c-0.253-0.798-1.026-1.244-1.845-1.047
					c-5.063,1.215-4.289,7.775-3.487,11.634C870.98,102.988,873.872,102.184,873.479,100.296L873.479,100.296z"/>
			</g>
		</g>
	</g>
	<g>
		<g>
			<path fill="#FFC03F" d="M879.826,100.71c-6.27-5.775,1.367-17.339,5.914-21.449c0.458,5.074,2.629,10.565-0.514,15.181
				c-1.428,1.973-3.041,5.557-5.395,6.415"/>
			<g>
				<path fill="#E9A400" d="M881.947,98.589c-4.68-4.908,2.226-13.724,5.914-17.207c-1.707-0.707-3.414-1.414-5.121-2.121
					c0.383,3.293,1.129,6.536,1.145,9.86c0.013,2.764-3.06,7.842-5.566,9.145c-3.435,1.785-0.4,6.962,3.027,5.181
					c3.382-1.757,5.376-5.574,7.202-8.771c2.663-4.665,0.765-10.496,0.192-15.416c-0.295-2.531-3.069-4.059-5.121-2.121
					c-6.408,6.05-13.324,17.922-5.914,25.691C880.38,105.635,884.616,101.386,881.947,98.589L881.947,98.589z"/>
			</g>
		</g>
		<g>
			<path fill="#FDF57A" d="M880.074,96.468c-0.069-3.157,0.302-9.229,4.202-8.949c0.267,1.618-0.222,4.366-0.562,5.959
				c-0.494,2.274-1.709,2.223-3.176,3.071"/>
			<g>
				<path fill="#FBB03B" d="M881.574,96.468c-0.032-1.959-0.241-7.504,2.702-7.449c-0.5-0.5-1-1-1.5-1.5
					c0.208,1.724-0.089,3.449-0.421,5.139c-0.335,1.706-1.187,1.846-2.573,2.596c-1.702,0.92-0.188,3.511,1.514,2.591
					c1.734-0.938,2.98-1.491,3.728-3.446c0.755-1.978,1.004-4.797,0.753-6.88c-0.1-0.824-0.607-1.483-1.5-1.5
					c-5.248-0.099-5.766,6.582-5.702,10.449C878.606,98.4,881.606,98.403,881.574,96.468L881.574,96.468z"/>
			</g>
		</g>
	</g>
	<g>
		<g>
			<path fill="#FFC03F" d="M897.568,95.056c-0.39,9.271,12.146,10.245,17.811,8.995c-2.989-3.746-5.117-9.26-10.184-9.566
				c-2.221-0.056-5.609-1.014-7.718,0.471"/>
			<g>
				<path fill="#E9A400" d="M894.568,95.056c-0.005,11.089,12.821,13.657,21.608,11.888c1.754-0.354,2.937-2.911,1.793-4.407
					c-2.704-3.538-4.687-7.693-8.695-9.967c-3.522-1.999-9.802-2.067-13.312-0.205c-3.419,1.813-0.387,6.993,3.029,5.181
					c2.216-1.175,6.919-0.361,8.742,1.234c2.093,1.832,3.379,4.593,5.054,6.785c0.598-1.469,1.195-2.938,1.793-4.407
					c-4.798,0.966-14.016,0.462-14.013-6.102C900.57,91.187,894.57,91.187,894.568,95.056L894.568,95.056z"/>
			</g>
		</g>
		<g>
			<path fill="#FDF57A" d="M900.482,97.637c2.002,2.143,6.184,5.825,8.575,2.244c-0.873-1.302-2.978-2.689-4.233-3.443
				c-1.803-1.068-2.57,0.023-4.088,0.741"/>
			<g>
				<path fill="#FBB03B" d="M899.422,98.698c2.91,3.067,7.646,6.339,10.931,1.94c0.287-0.383,0.285-1.13,0-1.514
					c-1.257-1.693-2.985-2.894-4.771-3.982c-2.091-1.273-3.699-0.239-5.602,0.741c-1.721,0.887-0.202,3.476,1.514,2.591
					c0.536-0.276,1.048-0.589,1.575-0.879c0.572-0.314,1.223,0.272,1.688,0.564c1.074,0.675,2.24,1.447,3.007,2.479
					c0-0.504,0-1.009,0-1.514c-1.7,2.275-5.001-1.264-6.22-2.548C900.209,95.171,898.091,97.296,899.422,98.698L899.422,98.698z"/>
			</g>
		</g>
	</g>
	<g>
		<g>
			<path fill="#FFC03F" d="M887.557,99.697c-0.389,9.271,12.146,10.245,17.811,8.995c-2.988-3.746-5.115-9.26-10.182-9.565
				c-2.222-0.056-5.61-1.015-7.719,0.471"/>
			<g>
				<path fill="#E9A400" d="M884.557,99.697c-0.004,11.089,12.821,13.657,21.608,11.888c1.754-0.354,2.936-2.911,1.793-4.407
					c-2.703-3.538-4.685-7.692-8.693-9.966c-3.522-1.998-9.803-2.067-13.312-0.205c-3.419,1.814-0.388,6.994,3.027,5.181
					c2.216-1.176,6.921-0.362,8.744,1.233c2.092,1.832,3.378,4.593,5.052,6.785c0.598-1.469,1.195-2.938,1.793-4.407
					c-4.798,0.966-14.015,0.461-14.013-6.102C890.558,95.828,884.558,95.828,884.557,99.697L884.557,99.697z"/>
			</g>
		</g>
		<g>
			<path fill="#FDF57A" d="M890.472,102.278c2.003,2.144,6.184,5.824,8.575,2.243c-0.873-1.301-2.977-2.688-4.233-3.441
				c-1.802-1.069-2.569,0.023-4.087,0.741"/>
			<g>
				<path fill="#FBB03B" d="M889.411,103.339c2.91,3.067,7.646,6.338,10.931,1.939c0.286-0.383,0.285-1.13,0-1.514
					c-1.257-1.692-2.985-2.893-4.771-3.98c-2.092-1.273-3.697-0.24-5.601,0.741c-1.721,0.887-0.202,3.476,1.514,2.591
					c0.536-0.276,1.048-0.589,1.575-0.879c0.571-0.314,1.222,0.272,1.688,0.564c1.073,0.674,2.239,1.446,3.006,2.477
					c0-0.504,0-1.009,0-1.514c-1.7,2.276-5.001-1.262-6.22-2.547C890.198,99.812,888.08,101.936,889.411,103.339L889.411,103.339z"
					/>
			</g>
		</g>
	</g>
	<g>
		<g>
			<path fill="#FFC03F" d="M877.911,104.761c-0.39,9.271,12.146,10.244,17.81,8.994c-2.988-3.746-5.115-9.26-10.182-9.566
				c-2.221-0.056-5.611-1.014-7.719,0.471"/>
			<g>
				<path fill="#E9A400" d="M874.911,104.761c-0.005,11.088,12.821,13.655,21.607,11.887c1.754-0.354,2.936-2.911,1.793-4.407
					c-2.703-3.538-4.685-7.692-8.693-9.967c-3.522-1.999-9.803-2.067-13.312-0.205c-3.419,1.814-0.388,6.993,3.027,5.181
					c2.217-1.176,6.921-0.361,8.744,1.234c2.092,1.831,3.378,4.593,5.052,6.785c0.598-1.469,1.195-2.938,1.793-4.407
					c-4.798,0.966-14.015,0.462-14.012-6.101C880.913,100.892,874.913,100.892,874.911,104.761L874.911,104.761z"/>
			</g>
		</g>
		<g>
			<path fill="#FDF57A" d="M880.826,107.342c2.002,2.144,6.183,5.824,8.574,2.243c-0.873-1.301-2.977-2.688-4.234-3.442
				c-1.801-1.068-2.568,0.024-4.086,0.742"/>
			<g>
				<path fill="#FBB03B" d="M879.766,108.402c2.909,3.067,7.646,6.337,10.93,1.939c0.286-0.383,0.285-1.13,0-1.514
					c-1.258-1.693-2.986-2.895-4.772-3.981c-2.092-1.272-3.697-0.239-5.6,0.742c-1.721,0.887-0.202,3.476,1.514,2.591
					c0.536-0.276,1.048-0.589,1.575-0.879c0.571-0.314,1.222,0.271,1.687,0.563c1.074,0.674,2.24,1.446,3.007,2.478
					c0-0.504,0-1.009,0-1.514c-1.7,2.276-5-1.262-6.219-2.547C880.553,104.875,878.436,107,879.766,108.402L879.766,108.402z"/>
			</g>
		</g>
	</g>
	<g>
		<g>
			<path fill="#FFC03F" d="M868.082,110.034c-0.389,9.272,12.147,10.246,17.811,8.996c-2.988-3.746-5.116-9.261-10.182-9.566
				c-2.221-0.057-5.611-1.015-7.719,0.47"/>
			<g>
				<path fill="#E9A400" d="M865.082,110.034c-0.004,11.089,12.82,13.658,21.608,11.889c1.754-0.353,2.936-2.91,1.793-4.406
					c-2.703-3.539-4.685-7.693-8.693-9.968c-3.522-1.999-9.803-2.067-13.312-0.206c-3.419,1.814-0.388,6.993,3.027,5.181
					c2.216-1.175,6.921-0.361,8.743,1.235c2.093,1.832,3.379,4.594,5.053,6.785c0.598-1.469,1.195-2.938,1.793-4.407
					c-4.799,0.966-14.015,0.461-14.013-6.103C871.083,106.165,865.083,106.165,865.082,110.034L865.082,110.034z"/>
			</g>
		</g>
		<g>
			<path fill="#FDF57A" d="M870.997,112.616c2.003,2.143,6.184,5.824,8.575,2.243c-0.873-1.302-2.977-2.688-4.234-3.443
				c-1.801-1.067-2.569,0.024-4.086,0.742"/>
			<g>
				<path fill="#FBB03B" d="M869.937,113.677c2.91,3.066,7.646,6.338,10.931,1.939c0.287-0.383,0.285-1.13,0-1.514
					c-1.257-1.693-2.986-2.895-4.772-3.982c-2.091-1.273-3.698-0.238-5.6,0.742c-1.72,0.887-0.202,3.476,1.514,2.591
					c0.535-0.276,1.048-0.589,1.575-0.879c0.571-0.314,1.222,0.271,1.687,0.563c1.074,0.674,2.24,1.446,3.007,2.478
					c0-0.504,0-1.009,0-1.514c-1.7,2.276-5.001-1.263-6.22-2.547C870.724,110.15,868.605,112.275,869.937,113.677L869.937,113.677z"
					/>
			</g>
		</g>
	</g>
</g>
<g id="aim">
	
		<ellipse id="cursor" fill="none" stroke="#FF4304" stroke-width="3" stroke-miterlimit="10" cx="889.012" cy="99.142" rx="42.667" ry="39.828"/>
	<line fill="none" stroke="#FF4304" stroke-miterlimit="10" x1="889.013" y1="59.314" x2="889.013" y2="138.97"/>
	<line fill="none" stroke="#FF4304" stroke-miterlimit="10" x1="846.346" y1="99.142" x2="931.679" y2="99.142"/>
	<rect x="887.244" y="59.354" fill="#FF4304" width="3.685" height="4.622"/>
	<rect x="887.17" y="134.349" fill="#FF4304" width="3.685" height="4.621"/>
	<rect x="927.058" y="97.3" fill="#FF4304" width="4.621" height="3.684"/>
	<rect x="846.346" y="97.3" fill="#FF4304" width="4.621" height="3.684"/>
	<rect x="887.244" y="71.309" fill="#FF4304" width="3.685" height="1.667"/>
	<rect x="887.17" y="79.559" fill="#FF4304" width="3.685" height="1.667"/>
	<rect x="887.17" y="88.934" fill="#FF4304" width="3.685" height="1.667"/>
	<rect x="887.281" y="109.892" fill="#FF4304" width="3.685" height="1.666"/>
	<rect x="887.207" y="118.142" fill="#FF4304" width="3.685" height="1.667"/>
	<rect x="887.207" y="127.517" fill="#FF4304" width="3.685" height="1.667"/>
	<g>
		<rect x="860.344" y="97.282" fill="#FF4304" width="1.666" height="3.685"/>
		<rect x="868.594" y="97.356" fill="#FF4304" width="1.667" height="3.685"/>
		<rect x="877.969" y="97.356" fill="#FF4304" width="1.667" height="3.685"/>
		<rect x="898.927" y="97.245" fill="#FF4304" width="1.666" height="3.685"/>
		<rect x="907.177" y="97.319" fill="#FF4304" width="1.667" height="3.685"/>
		<rect x="916.552" y="97.319" fill="#FF4304" width="1.667" height="3.685"/>
	</g>
</g>
</svg>
