<?xml version="1.0" encoding="utf-8"?>
<!-- Generator: Adobe Illustrator 16.0.0, SVG Export Plug-In . SVG Version: 6.00 Build 0)  -->
<!DOCTYPE svg PUBLIC "-//W3C//DTD SVG 1.1//EN" "http://www.w3.org/Graphics/SVG/1.1/DTD/svg11.dtd">
<svg version="1.1" xmlns="http://www.w3.org/2000/svg" xmlns:xlink="http://www.w3.org/1999/xlink" x="0px" y="0px" width="1000px"
	 height="232.488px" viewBox="0 0 1000 232.488" enable-background="new 0 0 1000 232.488" xml:space="preserve">
<g id="background">
	<rect y="0.712" fill="#99BFA3" stroke="#000000" stroke-miterlimit="10" width="1000" height="230.776"/>
</g>
<g id="table">
	<g id="plate">
		<g id="menu1">
			<rect id="plate1" x="724.5" y="191.901" fill="#666666" stroke="#666666" stroke-miterlimit="10" width="154" height="8"/>
			<g id="lid1">
				<path fill="#B3B3B3" stroke="#666666" stroke-miterlimit="10" d="M877.686,191.901c0-49-34.332-85.398-76.684-85.398
					s-76.684,36.398-76.684,85.398H877.686z"/>
				<ellipse cx="800.792" cy="101.084" rx="6.521" ry="5.277"/>
				<g>
					<path fill="#CCCCCC" d="M814.666,118.271c17.946,4.011,30.999,15.243,37.525,32.09c-5.71,0.802-11.422,4.012-17.133,8.021
						c-3.262-5.615-3.262-14.439-6.524-21.66c-4.078-8.022-9.789-11.231-14.685-17.65"/>
					<g>
						<path fill="#CCCCCC" d="M814.268,119.718c16.92,3.995,29.977,14.848,36.479,31.042c0.349-0.614,0.698-1.229,1.048-1.845
							c-6.519,1.16-12.1,4.461-17.49,8.173c0.685,0.181,1.368,0.359,2.053,0.538c-3.538-6.747-2.897-14.972-6.525-21.66
							c-3.817-7.039-10.005-11.777-14.918-17.953c-1.204-1.515-3.313,0.623-2.121,2.12c4.929,6.196,11.777,10.95,14.909,18.452
							c2.771,6.644,2.688,14.114,6.064,20.556c0.359,0.685,1.4,0.986,2.053,0.538c5.182-3.569,10.494-6.754,16.772-7.872
							c0.742-0.133,1.333-1.135,1.048-1.846c-6.896-17.176-20.557-28.884-38.572-33.137
							C813.184,116.381,812.385,119.273,814.268,119.718L814.268,119.718z"/>
					</g>
				</g>
			</g>
		</g>
		<g id="menu2">
			<rect id="plate2_1_" x="524.5" y="189.901" fill="#666666" stroke="#666666" stroke-miterlimit="10" width="155" height="9"/>
			<g id="lid2_1_">
				<path fill="#B3B3B3" stroke="#666666" stroke-miterlimit="10" d="M678.229,189.901c0-48-34.331-85.398-76.684-85.398
					c-42.352,0-76.684,37.398-76.684,85.398H678.229z"/>
				<ellipse cx="601.334" cy="99.881" rx="6.52" ry="5.277"/>
				<g>
					<path fill="#CCCCCC" d="M615.209,117.068c17.946,4.011,30.999,15.243,37.525,32.09c-5.71,0.802-11.422,4.011-17.133,8.022
						c-3.262-5.616-3.262-14.441-6.524-21.661c-4.078-8.022-9.789-11.231-14.685-17.649"/>
					<g>
						<path fill="#CCCCCC" d="M614.811,118.514c16.922,3.994,29.977,14.847,36.479,31.043c0.349-0.615,0.698-1.23,1.048-1.846
							c-6.519,1.16-12.101,4.46-17.49,8.173c0.685,0.181,1.368,0.359,2.053,0.538c-3.538-6.747-2.897-14.972-6.525-21.66
							c-3.817-7.039-10.005-11.777-14.918-17.953c-1.204-1.515-3.313,0.624-2.121,2.121c4.93,6.195,11.777,10.949,14.909,18.451
							c2.771,6.644,2.687,14.115,6.064,20.557c0.359,0.685,1.4,0.986,2.053,0.538c5.182-3.569,10.494-6.754,16.772-7.872
							c0.742-0.132,1.333-1.134,1.048-1.846c-6.896-17.176-20.557-28.884-38.572-33.138
							C613.727,115.177,612.928,118.07,614.811,118.514L614.811,118.514z"/>
					</g>
				</g>
			</g>
		</g>
		<g id="menu3">
			<rect id="plate3_1_" x="322.5" y="189.901" fill="#666666" stroke="#666666" stroke-miterlimit="10" width="155" height="9"/>
			<g id="lid3_1_">
				<path fill="#B3B3B3" stroke="#666666" stroke-miterlimit="10" d="M476.324,189.901c0-48-34.332-85.398-76.685-85.398
					c-42.351,0-76.683,37.398-76.683,85.398H476.324z"/>
				<ellipse cx="399.43" cy="99.881" rx="6.521" ry="5.277"/>
				<g>
					<path fill="#CCCCCC" d="M413.304,117.068c17.947,4.011,31,15.243,37.525,32.09c-5.709,0.802-11.42,4.011-17.131,8.022
						c-3.264-5.616-3.264-14.441-6.526-21.661c-4.079-8.022-9.79-11.231-14.684-17.649"/>
					<g>
						<path fill="#CCCCCC" d="M412.905,118.514c16.921,3.994,29.977,14.847,36.478,31.043c0.35-0.615,0.698-1.23,1.047-1.846
							c-6.518,1.16-12.099,4.46-17.488,8.173c0.685,0.181,1.368,0.359,2.053,0.538c-3.54-6.747-2.898-14.973-6.526-21.66
							c-3.817-7.038-10.005-11.777-14.919-17.953c-1.204-1.515-3.313,0.624-2.121,2.121c4.93,6.195,11.778,10.949,14.909,18.451
							c2.773,6.645,2.688,14.115,6.066,20.557c0.359,0.685,1.4,0.986,2.053,0.538c5.181-3.569,10.494-6.754,16.771-7.872
							c0.742-0.132,1.333-1.134,1.048-1.846c-6.896-17.177-20.558-28.885-38.573-33.138
							C411.821,115.177,411.023,118.07,412.905,118.514L412.905,118.514z"/>
					</g>
				</g>
			</g>
		</g>
		<g id="menu4">
			<rect id="plate4" x="123.5" y="188.901" fill="#666666" stroke="#666666" stroke-miterlimit="10" width="154" height="9"/>
			<g id="lid4">
				<path fill="#B3B3B3" stroke="#666666" stroke-miterlimit="10" d="M276.867,188.901c0-48-34.332-85.399-76.684-85.399
					c-42.351,0-76.683,37.399-76.683,85.399H276.867z"/>
				<ellipse cx="199.973" cy="98.677" rx="6.52" ry="5.277"/>
				<g>
					<path fill="#CCCCCC" d="M213.847,115.865c17.947,4.011,31,15.243,37.525,32.09c-5.71,0.802-11.42,4.012-17.131,8.022
						c-3.263-5.616-3.263-14.44-6.526-21.661c-4.079-8.022-9.79-11.231-14.684-17.649"/>
					<g>
						<path fill="#CCCCCC" d="M213.448,117.311c16.921,3.995,29.977,14.847,36.478,31.042c0.349-0.615,0.698-1.23,1.047-1.846
							c-6.518,1.16-12.099,4.461-17.489,8.174c0.685,0.18,1.369,0.358,2.053,0.539c-3.541-6.747-2.898-14.975-6.526-21.661
							c-3.818-7.039-10.006-11.777-14.919-17.953c-1.204-1.515-3.313,0.624-2.121,2.121c4.929,6.195,11.779,10.949,14.909,18.452
							c2.772,6.644,2.687,14.114,6.066,20.555c0.36,0.686,1.401,0.987,2.053,0.539c5.181-3.569,10.494-6.753,16.772-7.872
							c0.742-0.132,1.333-1.134,1.047-1.845c-6.895-17.178-20.557-28.885-38.573-33.138
							C212.364,113.974,211.566,116.867,213.448,117.311L213.448,117.311z"/>
					</g>
				</g>
			</g>
		</g>
	</g>
</g>
</svg>
